<svg width="110" height="99" viewBox="0 0 110 99" fill="none" xmlns="http://www.w3.org/2000/svg">
<path fill-rule="evenodd" clip-rule="evenodd" d="M27 20C28.6568 20 30 18.5861 30 16.8421V3.15789C30 1.41389 28.6568 0 27 0C25.3432 0 24 1.41389 24 3.15789V16.8421C24 18.5863 25.3432 20 27 20ZM79.8461 46V72.4037C79.8461 74.1665 81.302 75.5953 83.0979 75.5955H110C108.388 88.7612 96.9393 99 83.0979 99C68.1561 99 56 87.069 56 72.4039C56 58.8189 66.432 47.5817 79.8461 46ZM87 69V46C99.008 47.4427 108.557 56.9918 110 69H87ZM58 16.8421C58 18.5861 56.6568 20 55 20C53.3432 20 52 18.5863 52 16.8421V3.15789C52 1.41389 53.3432 0 55 0C56.6568 0 58 1.41389 58 3.15789V16.8421ZM98.338 7H92.1113V17.2295C92.1113 22.5175 87.7769 26.8197 82.4493 26.8197C77.1217 26.8197 72.7873 22.5175 72.7873 17.2295V7H64.6282V17.2295C64.6282 22.5175 60.2938 26.8197 54.9662 26.8197C49.6386 26.8197 45.3042 22.5175 45.3042 17.2295V7H37.1451V17.2295C37.1451 22.5175 32.8107 26.8197 27.4831 26.8197C22.1555 26.8197 17.8211 22.5175 17.8211 17.2295V7H9.66203C4.33439 7 0 11.3021 0 16.5902V75.4098C0 80.6979 4.33439 85 9.66203 85H52.5009C50.7725 81.0079 49.8131 76.6133 49.8131 72C49.8131 53.7857 64.7427 38.9672 83.0934 38.9672C92.9949 38.9672 101.898 43.2828 108 50.1165V16.5902C108 11.3021 103.666 7 98.338 7ZM22.33 67.9508H17.1769C15.3983 67.9508 13.9563 66.5195 13.9563 64.7541C13.9563 62.9887 15.3983 61.5574 17.1769 61.5574H22.33C24.1087 61.5574 25.5507 62.9887 25.5507 64.7541C25.5507 66.5195 24.1087 67.9508 22.33 67.9508ZM22.33 54.3115H17.1769C15.3983 54.3115 13.9563 52.8802 13.9563 51.1148C13.9563 49.3493 15.3983 47.918 17.1769 47.918H22.33C24.1087 47.918 25.5507 49.3493 25.5507 51.1148C25.5507 52.8802 24.1087 54.3115 22.33 54.3115ZM22.33 40.6721H17.1769C15.3983 40.6721 13.9563 39.2409 13.9563 37.4754C13.9563 35.71 15.3983 34.2787 17.1769 34.2787H22.33C24.1087 34.2787 25.5507 35.71 25.5507 37.4754C25.5507 39.2409 24.1087 40.6721 22.33 40.6721ZM41.2247 67.9508H36.0716C34.2929 67.9508 32.8509 66.5195 32.8509 64.7541C32.8509 62.9887 34.2929 61.5574 36.0716 61.5574H41.2247C43.0033 61.5574 44.4453 62.9887 44.4453 64.7541C44.4453 66.5195 43.0033 67.9508 41.2247 67.9508ZM41.2247 54.3115H36.0716C34.2929 54.3115 32.8509 52.8802 32.8509 51.1148C32.8509 49.3493 34.2929 47.918 36.0716 47.918H41.2247C43.0033 47.918 44.4453 49.3493 44.4453 51.1148C44.4453 52.8802 43.0033 54.3115 41.2247 54.3115ZM41.2247 40.6721H36.0716C34.2929 40.6721 32.8509 39.2409 32.8509 37.4754C32.8509 35.71 34.2929 34.2787 36.0716 34.2787H41.2247C43.0033 34.2787 44.4453 35.71 44.4453 37.4754C44.4453 39.2409 43.0033 40.6721 41.2247 40.6721ZM85 16.8421C85 18.5861 83.6568 20 82 20C80.3432 20 79 18.5863 79 16.8421V3.15789C79 1.41389 80.3432 0 82 0C83.6568 0 85 1.41389 85 3.15789V16.8421Z" fill="url(#paint0_linear)"/>
<defs>
<linearGradient id="paint0_linear" x1="52.25" y1="4.69374" x2="103.388" y2="88.5977" gradientUnits="userSpaceOnUse">
<stop stop-color="#0066CC"/>
<stop offset="1" stop-color="#041C63"/>
</linearGradient>
</defs>
</svg>
