<svg width="110" height="99" viewBox="0 0 110 99" fill="none" xmlns="http://www.w3.org/2000/svg">
<path fill-rule="evenodd" clip-rule="evenodd" d="M100.171 3.32425V35.4586H83.5494C78.0502 35.4586 73.5767 39.9324 73.5767 45.4314V55.4041H0V3.32425C0 1.48838 1.48838 0 3.32425 0H96.8464C98.6823 0 100.171 1.48838 100.171 3.32425ZM3.32425 78.3241C1.48838 78.3241 0 76.8357 0 74.9999V58.3786H73.5767V78.3241H3.32425ZM66.7066 88.3881H63.3823V81.7396H36.7883V88.3881H33.4641C31.6282 88.3881 30.1398 89.8765 30.1398 91.7124C30.1398 93.5482 31.6282 95.0366 33.4641 95.0366H66.7066C68.5424 95.0366 70.0308 93.5482 70.0308 91.7124C70.0308 89.8765 68.5424 88.3881 66.7066 88.3881ZM80.0818 38.3788H106.676C108.512 38.3788 110 39.8671 110 41.703V94.891C110 96.7268 108.512 98.2152 106.676 98.2152H80.0818C78.2459 98.2152 76.7575 96.7268 76.7575 94.891V41.703C76.7575 39.8671 78.2459 38.3788 80.0818 38.3788ZM90.0545 84.9182C90.0545 86.7541 91.5429 88.2425 93.3788 88.2425C95.2146 88.2425 96.703 86.7541 96.703 84.9182C96.703 83.0824 95.2146 81.594 93.3788 81.594C91.5429 81.594 90.0545 83.0824 90.0545 84.9182Z" fill="url(#paint0_linear)"/>
<defs>
<linearGradient id="paint0_linear" x1="38.0147" y1="8.51534" x2="65.1959" y2="113.896" gradientUnits="userSpaceOnUse">
<stop stop-color="#0066CC"/>
<stop offset="1" stop-color="#041C63"/>
</linearGradient>
</defs>
</svg>
