<svg width="92" height="110" viewBox="0 0 92 110" fill="none" xmlns="http://www.w3.org/2000/svg">
<path fill-rule="evenodd" clip-rule="evenodd" d="M42 35V3.22359C42 1.44331 43.3827 0 45.0882 0H45.9118C47.6173 0 49 1.44331 49 3.22359V35C46.6562 34.461 44.2976 34.4718 42 35ZM56.0849 8V38.1953C60.2323 41.2793 62.9257 46.2183 62.9257 51.7764C62.9257 61.0192 55.479 68.5492 46.2776 68.6789C44.1789 72.9734 41.2844 76.0844 38.6618 78.2328C33.4899 82.4694 28.2876 83.9224 28.0687 83.9821C26.3602 84.4487 24.5974 83.44 24.1313 81.7295C23.6664 80.0221 24.6692 78.2607 26.3717 77.7902C26.4782 77.7596 30.6872 76.533 34.7809 73.1141C36.7861 71.4395 38.4202 69.544 39.6791 67.4369C33.5097 64.9169 29.1489 58.8487 29.1489 51.7767C29.1489 46.2187 31.8423 41.2795 35.9898 38.1955V9.79529C17.7169 16.338 6.1039 35.7245 10.0624 55.8578L2.17317 63.7564C-0.822918 66.7558 -0.708762 71.6739 2.43954 74.5359C4.59442 76.4938 6.71851 77.808 8.78617 78.4655C9.50809 84.797 12.5454 91.204 15.146 95.7044C17.1737 99.2135 21.082 101.155 25.1023 100.651L31.3991 99.8635L32.6117 107.299C32.8979 109.055 34.5513 110.236 36.2931 109.951L69.9834 110C72.0547 110 73.5964 108.057 73.0981 106.03C73.0693 105.907 70.3028 93.5684 78.6211 76.7224C80.1203 73.6853 82.1431 70.3066 84.4709 66.9517C88.3727 61.3246 91.9854 55.193 91.9999 48.4851C92.0461 28.0599 75.8336 11.1467 56.0849 8ZM57 51.658C57 45.7811 52.2898 41 46.5 41C40.7102 41 36 45.7811 36 51.658C36 56.1187 38.715 59.946 42.5548 61.5324C43.0401 59.5313 43.2857 57.399 43.2857 55.1382C43.2857 53.3363 44.7249 51.8755 46.5 51.8755C48.2751 51.8755 49.7143 53.3363 49.7143 55.1382C49.7143 57.6235 49.4664 59.9045 49.0354 62C53.604 60.8457 57 56.6475 57 51.658Z" fill="url(#paint0_linear)"/>
<defs>
<linearGradient id="paint0_linear" x1="46.0373" y1="-4.4945e-07" x2="69.2762" y2="84.4065" gradientUnits="userSpaceOnUse">
<stop offset="0.125" stop-color="#0066CC"/>
<stop offset="1" stop-color="#041C63"/>
</linearGradient>
</defs>
</svg>
