<svg width="91" height="110" viewBox="0 0 91 110" fill="none" xmlns="http://www.w3.org/2000/svg">
<path fill-rule="evenodd" clip-rule="evenodd" d="M37.7271 106.112L45.5 110L53.2729 106.112C64.6094 100.442 74.1435 91.725 80.807 80.9392C87.4704 70.1534 90.9999 57.7245 91 45.045V15.1724L45.5 0L0 15.1724V45.045C7.87214e-05 57.7245 3.52958 70.1534 10.193 80.9392C16.8565 91.725 26.3906 100.442 37.7271 106.112ZM45.5 102C45.1857 102 44.8756 101.928 44.5943 101.79L41.723 100.371C31.264 95.2494 22.467 87.3358 16.3298 77.5274C10.1926 67.7191 6.96061 56.4085 7.00041 44.8782V22.0102C7.00031 21.59 7.13412 21.1804 7.38289 20.8395C7.63166 20.4986 7.98275 20.2437 8.3864 20.1109L44.8597 8.10253C45.2754 7.96579 45.7247 7.96579 46.1404 8.10253L82.6137 20.1109C83.0173 20.2437 83.3684 20.4986 83.6172 20.8395C83.866 21.1804 83.9998 21.59 83.9997 22.0102V44.8782C84.0395 56.4087 80.8074 67.7196 74.6697 77.528C68.5321 87.3364 59.7346 95.2498 49.275 100.371L46.4058 101.79C46.1245 101.928 45.8144 102 45.5 102ZM45.5 98L42.7841 96.6283C33.2102 91.8373 25.1577 84.4342 19.5399 75.2585C13.9221 66.0828 10.9637 55.5016 11.0003 44.715V22.6085L45.5 11L79.9997 22.6085V44.715C80.0363 55.5019 77.0778 66.0833 71.4596 75.2591C65.8414 84.4348 57.7884 91.8378 48.214 96.6283L45.5 98ZM33.5633 51.2194C32.0552 49.6962 29.5938 49.6967 28.0863 51.2206C26.6005 52.7226 26.6014 55.1409 28.0882 56.6418L38.1146 66.7629C40.0709 68.7377 43.2625 68.7377 45.2188 66.7629L67.2114 44.5625C68.6986 43.0613 68.6984 40.6421 67.2109 39.1411C65.7039 37.6203 63.2459 37.6206 61.7392 39.1415L45.2198 55.817C43.263 57.7922 40.0708 57.7918 38.1146 55.8161L33.5633 51.2194Z" fill="url(#paint0_linear)"/>
<defs>
<linearGradient id="paint0_linear" x1="10.2104" y1="15.3214" x2="45.5235" y2="109.991" gradientUnits="userSpaceOnUse">
<stop stop-color="#0066CC"/>
<stop offset="1" stop-color="#041C63"/>
</linearGradient>
</defs>
</svg>
