<svg width="110" height="110" viewBox="0 0 110 110" fill="none" xmlns="http://www.w3.org/2000/svg">
<g clip-path="url(#clip0)">
<path fill-rule="evenodd" clip-rule="evenodd" d="M77.9167 22.9167H100.833C105.889 22.9167 110 27.0278 110 32.0832V45.8332C110 50.889 105.889 55 100.834 55H64.167V52.7082C64.167 51.4415 63.1419 50.4165 61.8752 50.4165H48.1252C46.8585 50.4165 45.8335 51.4415 45.8335 52.7082V55H9.16674C4.11104 55 0 50.889 0 45.8332V32.0832C0 27.0278 4.11104 22.9167 9.16674 22.9165H32.0833V18.3332C32.0833 13.2775 36.1945 9.1665 41.25 9.1665H68.75C73.8057 9.1665 77.9167 13.2778 77.9167 18.3332V22.9167ZM41.25 22.9167H68.75V18.3332H41.25V22.9167ZM106.325 57.6988C107.015 57.1753 107.948 57.0857 108.729 57.4728C109.508 57.8602 110 58.6545 110 59.5252V91.6667C110 96.7224 105.889 100.833 100.833 100.833H9.16674C4.11104 100.833 0 96.7222 0 91.6667V59.5252C0 58.6545 0.492422 57.8602 1.27102 57.4728C2.05219 57.0812 2.98311 57.1708 3.67469 57.6988C5.30406 58.932 7.20178 59.5832 9.16674 59.5832H45.8333V66.4582C45.8333 67.725 46.8583 68.75 48.125 68.75H61.875C63.1417 68.75 64.1667 67.725 64.1667 66.4582V59.5832H100.833C102.798 59.5832 104.696 58.932 106.325 57.6988Z" fill="url(#paint0_linear)"/>
</g>
<defs>
<linearGradient id="paint0_linear" x1="100.066" y1="97.7235" x2="65.1373" y2="27.1151" gradientUnits="userSpaceOnUse">
<stop stop-color="#041C63"/>
<stop offset="1" stop-color="#0066CC"/>
</linearGradient>
<clipPath id="clip0">
<rect width="110" height="110" fill="white"/>
</clipPath>
</defs>
</svg>
