<?xml version="1.0" encoding="utf-8"?>
<!-- Generator: Adobe Illustrator 25.0.1, SVG Export Plug-In . SVG Version: 6.00 Build 0)  -->
<svg version="1.1" id="Layer_1" xmlns="http://www.w3.org/2000/svg" xmlns:xlink="http://www.w3.org/1999/xlink" x="0px" y="0px"
	 viewBox="0 0 133 114" style="enable-background:new 0 0 133 114;" xml:space="preserve">
<style type="text/css">
	.st0{clip-path:url(#SVGID_2_);}
	.st1{fill:url(#SVGID_3_);}
	.st2{fill:url(#SVGID_4_);}
	.st3{fill:url(#SVGID_5_);}
	.st4{fill:url(#SVGID_6_);}
	.st5{fill:url(#SVGID_7_);}
	.st6{fill:url(#SVGID_8_);}
</style>
<g>
	<defs>
		<rect id="SVGID_1_" width="110" height="110"/>
	</defs>
	<clipPath id="SVGID_2_">
		<use xlink:href="#SVGID_1_"  style="overflow:visible;"/>
	</clipPath>
	<g class="st0">
		
			<linearGradient id="SVGID_3_" gradientUnits="userSpaceOnUse" x1="57.8318" y1="83.1661" x2="54.0037" y2="108.9638" gradientTransform="matrix(1 0 0 -1 0 116)">
			<stop  offset="0" style="stop-color:#041C63"/>
			<stop  offset="1" style="stop-color:#0066CC"/>
		</linearGradient>
		<path class="st1" d="M55,27.5c30.4,0,55-6.2,55-13.8C110,6.2,85.4,0,55,0S0,6.2,0,13.8C0,21.3,24.6,27.5,55,27.5z"/>
		
			<linearGradient id="SVGID_4_" gradientUnits="userSpaceOnUse" x1="59.9549" y1="55.1445" x2="54.7846" y2="85.0095" gradientTransform="matrix(1 0 0 -1 0 116)">
			<stop  offset="0" style="stop-color:#041C63"/>
			<stop  offset="1" style="stop-color:#0066CC"/>
		</linearGradient>
		<path class="st2" d="M55,36.7c-30.4,0-55-6.2-55-13.8v18.3C0,48.8,24.6,55,55,55s55-6.2,55-13.8V22.9C110,30.5,85.4,36.7,55,36.7z
			"/>
		<g>
			<linearGradient id="SVGID_5_" gradientUnits="userSpaceOnUse" x1="110.0181" y1="50.4044" x2="109.9967" y2="50.528">
				<stop  offset="0" style="stop-color:#041C63"/>
				<stop  offset="1" style="stop-color:#0066CC"/>
			</linearGradient>
			<path class="st3" d="M110,50.6v-0.2C110,50.5,110,50.5,110,50.6C110,50.6,110,50.6,110,50.6z"/>
			<linearGradient id="SVGID_6_" gradientUnits="userSpaceOnUse" x1="41.2243" y1="87.0499" x2="39.4737" y2="62.016">
				<stop  offset="0" style="stop-color:#041C63"/>
				<stop  offset="1" style="stop-color:#0066CC"/>
			</linearGradient>
			<path class="st4" d="M74,80c0-6.4,2-12.4,5.5-17.3c-7.4,0.9-15.7,1.4-24.5,1.4C24.6,64.2,0,58,0,50.4v18.3
				c0,7.6,24.6,13.8,55,13.8c6.7,0,13.1-0.3,19-0.8C74,81.1,74,80.6,74,80z"/>
		</g>
		<linearGradient id="SVGID_7_" gradientUnits="userSpaceOnUse" x1="59.031" y1="129.048" x2="38.1183" y2="88.0044">
			<stop  offset="0" style="stop-color:#041C63"/>
			<stop  offset="1" style="stop-color:#0066CC"/>
		</linearGradient>
		<path class="st5" d="M75.9,90.6c-6.5,0.7-13.5,1-20.9,1c-30.4,0-55-6.2-55-13.8v18.3c0,7.6,24.6,13.7,55,13.7
			c13.5,0,25.9-1.2,35.4-3.2C83.8,103.4,78.6,97.6,75.9,90.6z"/>
	</g>
</g>
<linearGradient id="SVGID_8_" gradientUnits="userSpaceOnUse" x1="105.7997" y1="6.2531" x2="105.0257" y2="43.1493" gradientTransform="matrix(1 0 0 -1 0 116)">
	<stop  offset="0" style="stop-color:#041C63"/>
	<stop  offset="1" style="stop-color:#0066CC"/>
</linearGradient>
<path class="st6" d="M113.4,62.9C113.3,62.9,113.3,62.9,113.4,62.9C113.3,62.9,113.3,62.9,113.4,62.9
	C113.3,62.9,113.3,62.9,113.4,62.9C113.3,62.9,113.3,62.9,113.4,62.9C113.3,62.9,113.3,62.9,113.4,62.9
	C113.3,62.9,113.3,62.9,113.4,62.9c-0.1-0.1-0.1-0.1-0.2-0.1c-5-2.9-11.1-3.7-16.8-2.3l-1.6-6.3c-0.1-0.3-0.3-0.5-0.6-0.6
	c-0.3,0-0.6,0.1-0.8,0.4l-7.6,13.1c-0.2,0.4-0.1,0.8,0.3,1.1l13,7.5c0,0,0,0,0,0c0.4,0.2,0.8,0.1,1.1-0.3c0.1-0.2,0.1-0.5,0-0.8
	l-1.6-6.3c3.6-0.9,7.4-0.4,10.7,1.5c6.8,4,9.1,12.8,5.1,19.7c-4,6.8-12.8,9.1-19.7,5.1l-4,7l0.1,0.1c10.7,6.2,24.4,2.5,30.7-8.2
	C127.6,82.9,124,69.1,113.4,62.9z"/>
</svg>
