<svg width="110" height="110" viewBox="0 0 110 110" fill="none" xmlns="http://www.w3.org/2000/svg">
<g clip-path="url(#clip0)">
<path d="M75.0654 74.3145L77.9229 81.0391H71.9717L75.0654 74.3145Z" fill="url(#paint0_linear)"/>
<path d="M75.0664 74.3145L71.9512 81.0391H77.9023L75.0664 74.3145ZM75.0664 74.3145L71.9512 81.0391H77.9023L75.0664 74.3145Z" fill="url(#paint1_linear)"/>
<path d="M39.832 0H31.2813C14.0293 0 0 14.0293 0 31.2812C0 38.7578 2.25586 45.2461 6.31641 50.6172L8.20703 68.5996C8.44336 70.7695 10.6992 72.0801 12.6973 71.2207L31.3027 63.0566H39.832C57.084 63.0566 71.1133 49.0273 71.1133 31.7754V31.2812C71.1133 14.0293 57.084 0 39.832 0Z" fill="url(#paint2_linear)"/>
<path d="M100.246 56.0098L98.3769 41.5938C98.0976 39.5098 95.9491 38.2423 93.9941 39.0157L75.0448 46.4923L74.4863 46.7071C68.8144 59.8341 55.9023 69.1153 40.7988 69.502C37.5761 79.9864 39.9394 92.168 48.5976 100.826C54.5058 106.734 62.3691 110 70.7265 110H78.6972C95.9491 110 110 95.9708 110 78.6973C110 69.7169 106.24 61.6602 100.246 56.0098Z" fill="url(#paint3_linear)"/>
<path d="M20.85 23.5H27.225C29.4583 23.5 31.15 24.0333 32.3 25.1C33.4667 26.1667 34.05 27.5417 34.05 29.225C34.05 30.425 33.75 31.4833 33.15 32.4C32.5667 33.3 31.7 33.9667 30.55 34.4L35.1 41H30.125L26.375 34.95H25.075V41H20.85V23.5ZM26.925 27.1H25.075V31.65H26.925C27.775 31.65 28.4417 31.45 28.925 31.05C29.4083 30.65 29.65 30.0917 29.65 29.375C29.65 28.6417 29.4083 28.0833 28.925 27.7C28.4417 27.3 27.775 27.1 26.925 27.1ZM36.9115 23.5H41.1365V34.95C41.1365 35.8333 41.3699 36.55 41.8365 37.1C42.3032 37.65 43.0032 37.925 43.9365 37.925C44.8699 37.925 45.5699 37.65 46.0365 37.1C46.5199 36.55 46.7615 35.8333 46.7615 34.95V23.5H50.9865V35.25C50.9865 36.7167 50.6699 37.9333 50.0365 38.9C49.4199 39.85 48.5782 40.5583 47.5115 41.025C46.4449 41.4917 45.2532 41.725 43.9365 41.725C42.6199 41.725 41.4282 41.4917 40.3615 41.025C39.3115 40.5583 38.4699 39.85 37.8365 38.9C37.2199 37.9333 36.9115 36.7167 36.9115 35.25V23.5Z" fill="white"/>
<path d="M48.85 71.5H60.475V74.975H52.925V78.1H59.975V81.525H52.925V85.525H60.475V89H48.85V71.5ZM75.9885 71.5H80.0635V89.875L67.9885 79.175V89H63.9135V70.625L75.9885 81.325V71.5ZM92.4127 82.675V79.425H101.263C101.346 80.8083 101.204 82.1167 100.838 83.35C100.471 84.5667 99.9044 85.6417 99.1377 86.575C98.371 87.5083 97.4127 88.2417 96.2627 88.775C95.1294 89.2917 93.8127 89.55 92.3127 89.55C90.4627 89.55 88.8127 89.1583 87.3627 88.375C85.9294 87.5917 84.796 86.5083 83.9627 85.125C83.146 83.725 82.7377 82.1 82.7377 80.25C82.7377 78.4 83.1627 76.7917 84.0127 75.425C84.8627 74.0417 86.021 72.975 87.4877 72.225C88.9544 71.475 90.6127 71.1 92.4627 71.1C94.3127 71.1 95.8877 71.4917 97.1877 72.275C98.4877 73.0417 99.546 74.0333 100.363 75.25L96.5877 77.2C96.1877 76.5167 95.6544 75.9417 94.9877 75.475C94.3377 75.0083 93.496 74.775 92.4627 74.775C91.496 74.775 90.6044 74.9917 89.7877 75.425C88.9877 75.8583 88.346 76.4833 87.8627 77.3C87.396 78.1167 87.1627 79.1 87.1627 80.25C87.1627 81.4 87.3877 82.4 87.8377 83.25C88.3044 84.0833 88.9377 84.7333 89.7377 85.2C90.5377 85.65 91.446 85.875 92.4627 85.875C93.746 85.875 94.7627 85.575 95.5127 84.975C96.2627 84.3583 96.7794 83.5917 97.0627 82.675H92.4127Z" fill="white"/>
</g>
<defs>
<linearGradient id="paint0_linear" x1="77.3854" y1="80.8109" x2="74.4027" y2="76.3643" gradientUnits="userSpaceOnUse">
<stop stop-color="#041C63"/>
<stop offset="1" stop-color="#0066CC"/>
</linearGradient>
<linearGradient id="paint1_linear" x1="77.3649" y1="80.8109" x2="74.3822" y2="76.3643" gradientUnits="userSpaceOnUse">
<stop stop-color="#041C63"/>
<stop offset="1" stop-color="#0066CC"/>
</linearGradient>
<linearGradient id="paint2_linear" x1="64.6907" y1="69.0618" x2="34.5309" y2="18.5201" gradientUnits="userSpaceOnUse">
<stop stop-color="#041C63"/>
<stop offset="1" stop-color="#0066CC"/>
</linearGradient>
<linearGradient id="paint3_linear" x1="103.626" y1="107.584" x2="73.5286" y2="57.334" gradientUnits="userSpaceOnUse">
<stop stop-color="#041C63"/>
<stop offset="1" stop-color="#0066CC"/>
</linearGradient>
<clipPath id="clip0">
<rect width="110" height="110" fill="white"/>
</clipPath>
</defs>
</svg>
