<svg width="359" height="359" viewBox="0 0 359 359" fill="none" xmlns="http://www.w3.org/2000/svg">
<g clip-path="url(#clip0)">
<path d="M261.134 136.504C281.39 136.504 297.87 120.024 297.87 99.7659C297.87 79.5097 281.391 63.0293 261.134 63.0293C240.883 63.0293 224.408 79.509 224.408 99.7659C224.408 120.024 240.884 136.504 261.134 136.504Z" fill="url(#paint0_linear)"/>
<path d="M341.218 202.989L328.6 185.786C325.721 181.859 320.93 175.608 317.92 171.852L299.302 148.592C296.602 145.218 293.802 142.816 288.428 142.816C288.365 142.816 244.419 142.759 244.419 142.759L215.844 123.338C212.666 121.178 207.418 116.969 204.615 114.33L201.339 111.247H207.245C208.285 111.247 209.209 110.816 209.78 110.064C210.352 109.312 210.519 108.306 210.241 107.304L206.356 93.3261C205.833 91.4449 203.893 89.9714 201.941 89.9714H191.935L189.438 74.8333L202.604 66.0556C205.764 63.949 208.467 60.193 209.964 56.2235C220.711 55.2691 229.166 46.222 229.166 35.2313C229.166 20.3676 225.054 14.166 215.015 13.9681L217.454 4.43883C217.741 3.31778 217.527 2.1868 216.867 1.33732C216.207 0.487846 215.165 0 214.008 0H145.554C144.397 0 143.354 0.487846 142.695 1.33732C142.035 2.1868 141.821 3.31778 142.109 4.43954L144.549 13.9681C134.47 14.1447 130.344 20.3413 130.344 35.2327C130.344 46.2241 138.8 55.272 149.548 56.225C151.044 60.1944 153.747 63.9504 156.907 66.0563L170.122 74.8666L167.631 89.9714H159.047C157.094 89.9714 155.155 91.4449 154.632 93.3261L150.747 107.305C150.469 108.307 150.637 109.312 151.208 110.065C151.78 110.815 152.704 111.247 153.744 111.247H158.171L154.895 114.33C152.093 116.967 146.846 121.177 143.668 123.338L115.091 142.759C115.091 142.759 71.8971 142.789 71.8439 142.789C66.3053 142.789 62.6649 144.914 59.6988 148.619L41.0798 171.878C38.0684 175.64 33.2764 181.891 30.399 185.815L17.7823 203.018C15.3268 206.367 14.322 210.472 14.9538 214.576C15.5856 218.681 17.7767 222.293 21.1249 224.749C23.8109 226.718 26.9862 227.759 30.3075 227.759C35.2469 227.759 39.9375 225.383 42.8546 221.406L54.1637 205.985L51.6848 233.688L29.8636 337.324C28.9617 341.608 29.7814 345.987 32.1731 349.654C34.5648 353.321 38.2421 355.838 42.5242 356.739C43.6403 356.975 44.7819 357.095 45.9179 357.095C53.6149 357.095 60.354 351.62 61.9416 344.078L82.3638 247.091H87.6819L90.5983 279.828C90.9486 283.759 91.1251 290.67 90.9762 294.617L89.2574 340.081C89.0922 344.456 90.6394 348.633 93.6169 351.844C96.5936 355.055 100.642 356.914 105.02 357.08C105.229 357.088 105.439 357.093 105.646 357.093C114.491 357.093 121.681 350.164 122.015 341.32L123.734 295.858C123.936 290.542 123.724 282.222 123.251 276.919L118.889 227.969C118.877 227.835 118.85 227.707 118.835 227.574L123.578 174.584L161.147 149.052C165.634 146.003 172.249 140.697 176.206 136.973L179.756 133.631L183.305 136.971C187.259 140.694 193.875 146.001 198.366 149.053L233.22 172.741L238.128 227.574C238.113 227.706 238.085 227.835 238.074 227.969L233.712 276.917C233.24 282.213 233.022 290.523 233.217 295.836L234.947 343.209C235.269 352.065 242.46 359.001 251.317 359.001C251.519 359.001 251.723 358.998 251.924 358.99C256.299 358.831 260.35 356.977 263.331 353.771C266.312 350.564 267.866 346.388 267.706 342.013L265.975 294.641C265.831 290.685 266.013 283.764 266.364 279.828L269.28 247.091H274.6L282.372 283.997C283.362 288.699 285.08 296.306 286.203 300.954L296.727 344.547C298.51 351.935 305.057 357.095 312.648 357.095C313.944 357.095 315.242 356.939 316.506 356.633C325.291 354.513 330.713 345.64 328.592 336.853L318.069 293.261C317.005 288.854 315.381 281.668 314.449 277.242L305.275 233.68L302.512 202.797C302.874 203.284 303.215 203.746 303.529 204.172L316.146 221.376C319.063 225.353 323.754 227.728 328.693 227.728C332.015 227.728 335.189 226.687 337.875 224.718C341.223 222.263 343.415 218.65 344.046 214.546C344.678 210.442 343.673 206.338 341.218 202.989ZM212.224 22.6735C212.334 22.5501 212.438 22.4225 212.535 22.2892C213.228 22.2608 213.896 22.2374 214.516 22.2374C218.076 22.2374 220.889 22.2374 220.889 35.232C220.889 40.8436 217.259 45.6235 212.224 47.348V22.6735ZM147.286 47.3487C142.251 45.6242 138.621 40.8443 138.621 35.2327C138.621 22.2381 141.433 22.2381 144.992 22.2381C145.629 22.2381 146.316 22.2622 147.032 22.292C147.11 22.4005 147.198 22.504 147.286 22.6061V47.3487H147.286ZM169.699 48.6478C169.393 48.2266 169.104 47.4955 169.46 46.4021L172.071 38.3654C172.057 38.403 172.038 38.3413 172.022 38.3186L165.234 33.3962C163.833 32.3779 164.094 31.164 164.207 30.8158C164.32 30.4677 164.823 29.3317 166.555 29.3317H175.006C174.967 29.3296 175.018 29.292 175.035 29.2686L177.62 21.2936C178.156 19.6479 179.391 19.5195 179.757 19.5195C180.123 19.5195 181.358 19.6479 181.894 21.2922L184.506 29.3303C184.495 29.292 184.546 29.3289 184.575 29.3388L192.958 29.3317C194.689 29.3317 195.192 30.4677 195.306 30.8158C195.419 31.1633 195.679 32.3779 194.28 33.3962L187.443 38.364C187.471 38.3392 187.455 38.403 187.456 38.4313L190.052 46.4042C190.407 47.4962 190.118 48.2273 189.813 48.6485C189.428 49.1781 188.826 49.4823 188.162 49.4823C187.64 49.4823 187.112 49.2916 186.595 48.9158L179.758 43.948L172.918 48.9158C171.742 49.7688 170.385 49.5937 169.699 48.6478Z" fill="url(#paint1_linear)"/>
<path d="M95.8277 136.504C116.078 136.504 132.554 120.024 132.554 99.7659C132.554 79.5097 116.079 63.0293 95.8277 63.0293C75.5715 63.0293 59.0918 79.509 59.0918 99.7659C59.0918 120.024 75.5708 136.504 95.8277 136.504Z" fill="url(#paint2_linear)"/>
</g>
<defs>
<linearGradient id="paint0_linear" x1="291.235" y1="134.011" x2="260.312" y2="81.9263" gradientUnits="userSpaceOnUse">
<stop stop-color="#041C63"/>
<stop offset="1" stop-color="#0066CC"/>
</linearGradient>
<linearGradient id="paint1_linear" x1="314.475" y1="346.822" x2="157.511" y2="104.156" gradientUnits="userSpaceOnUse">
<stop stop-color="#041C63"/>
<stop offset="1" stop-color="#0066CC"/>
</linearGradient>
<linearGradient id="paint2_linear" x1="125.919" y1="134.011" x2="94.9956" y2="81.9263" gradientUnits="userSpaceOnUse">
<stop stop-color="#041C63"/>
<stop offset="1" stop-color="#0066CC"/>
</linearGradient>
<clipPath id="clip0">
<rect width="359" height="359" fill="white"/>
</clipPath>
</defs>
</svg>
