<svg width="110" height="110" viewBox="0 0 110 110" fill="none" xmlns="http://www.w3.org/2000/svg">
<path fill-rule="evenodd" clip-rule="evenodd" d="M54.9137 0C70.0185 0 84.3606 6.48504 94.3534 16.4604C104.645 26.7281 110.056 39.982 110 54.7905C109.993 56.565 108.549 58 106.771 58H93.8553C92.1042 58 90.6265 56.5945 90.6265 54.7683C90.6517 45.6052 86.6408 36.1147 79.8994 29.3871C75.3019 24.7961 67.2867 19.3333 55.2226 19.3333C55.1572 19.3445 54.9873 19.3474 54.7239 19.3517C52.3754 19.3908 42.5959 19.5532 33.2325 26.8761L40.8506 31.4388C42.0235 32.1406 42.629 33.5029 42.3578 34.8404C42.0866 36.1778 41.0019 37.1973 39.646 37.3924L7.6854 41.9488C5.59892 42.2453 3.72253 40.4567 4.03401 38.3017L8.59981 6.40363C8.79548 5.05373 9.81709 3.97128 11.1603 3.70061C12.4908 3.44563 13.8594 4.031 14.5656 5.20153L19.3775 13.2066C29.2026 4.76416 41.9226 0 54.9137 0ZM70.3561 72.6362L102.315 68.0798C104.38 67.7599 106.278 69.5697 105.966 71.7267L101.401 103.625C101.205 104.975 100.184 106.057 98.8404 106.328C97.5036 106.589 96.1415 105.997 95.4353 104.827L90.6112 96.7996C80.7864 105.236 68.0737 110 55.0833 110C39.0149 109.618 25.5762 103.453 15.6457 93.5396C5.35421 83.2719 -0.0563814 70.018 0.000443027 55.2095C0.0066851 53.435 1.45076 52 3.2291 52H16.1437C17.8947 52 19.3724 53.4055 19.3724 55.2317C19.3472 64.3948 23.3579 73.8853 30.0986 80.6131C34.7148 85.2168 42.7233 90.8273 54.8812 90.6669C62.6375 90.689 70.5514 87.9795 76.7439 83.14L69.1516 78.5898C67.9788 77.888 67.3733 76.5256 67.6445 75.1882C67.9157 73.8507 69.0003 72.8312 70.3561 72.6362Z" fill="url(#paint0_linear)"/>
<defs>
<linearGradient id="paint0_linear" x1="52.8037" y1="110.008" x2="52.8037" y2="51.9959" gradientUnits="userSpaceOnUse">
<stop stop-color="#041C63"/>
<stop offset="1" stop-color="#0066CC"/>
</linearGradient>
</defs>
</svg>
