<svg width="361" height="268" viewBox="0 0 361 268" fill="none" xmlns="http://www.w3.org/2000/svg">
<g clip-path="url(#clip0)">
<path d="M166.353 81.4894C167.153 81.8525 168.098 81.9978 169.117 81.9978C170.571 81.9978 171.808 81.7073 172.754 81.1989C173.699 80.6178 174.281 79.8916 174.427 78.8748C174.645 77.6401 174.063 76.6959 172.826 75.9696C172.317 75.6791 171.59 75.3886 170.79 75.1707C169.917 74.8802 169.335 74.6623 169.044 74.4444C168.753 74.2265 168.607 73.936 168.68 73.6455C168.753 73.2824 168.971 73.0645 169.335 72.8466C169.699 72.6287 170.135 72.5561 170.717 72.5561C171.299 72.5561 171.662 72.7013 171.953 72.9192C172.244 73.2097 172.317 73.5002 172.244 74.0086H175.372C175.518 73.355 175.372 72.7013 175.081 72.1929C174.79 71.6845 174.281 71.2487 173.554 70.9582C172.899 70.6677 172.026 70.5225 171.153 70.5225C170.208 70.5225 169.335 70.6677 168.535 70.8856C167.735 71.1761 167.08 71.5393 166.571 71.975C166.062 72.4834 165.771 72.9918 165.625 73.5729C165.407 74.8076 166.062 75.8244 167.662 76.5506C168.171 76.7685 168.753 76.9864 169.553 77.2769C170.353 77.4948 170.862 77.7853 171.153 78.0032C171.444 78.2211 171.517 78.5116 171.517 78.9474C171.444 79.3105 171.226 79.601 170.935 79.7463C170.571 79.9642 170.208 80.0368 169.699 80.0368C168.898 80.0368 168.317 79.8916 168.026 79.601C167.735 79.3105 167.589 78.8748 167.735 78.2937H164.607C164.461 79.02 164.607 79.6737 164.898 80.2547C164.971 80.6905 165.552 81.1262 166.353 81.4894Z" fill="url(#paint0_linear)"/>
<path d="M212.323 81.7073C213.123 82.1431 214.069 82.361 215.16 82.361C216.251 82.361 217.269 82.1431 218.215 81.7073C219.161 81.2715 219.888 80.6179 220.543 79.819C221.125 79.0201 221.561 78.0032 221.779 76.9138L221.852 76.4054C221.997 75.316 221.925 74.3718 221.634 73.5729C221.27 72.7013 220.761 72.1203 219.961 71.6119C219.161 71.1761 218.215 70.8856 217.124 70.8856C216.033 70.8856 215.015 71.1035 214.069 71.5393C213.123 71.9751 212.323 72.6287 211.741 73.4276C211.159 74.2265 210.723 75.2433 210.578 76.3328L210.505 76.9864C210.359 78.0032 210.432 78.9474 210.796 79.819C211.014 80.6179 211.596 81.2715 212.323 81.7073ZM213.56 76.8412L213.705 76.0423C214.142 74.0087 215.16 72.9919 216.688 72.9919C217.488 72.9919 218.07 73.2824 218.361 73.8634C218.724 74.4444 218.797 75.316 218.579 76.4054L218.506 76.9138C218.288 78.0032 217.924 78.8022 217.415 79.3832C216.906 79.9642 216.251 80.2547 215.451 80.2547C214.651 80.2547 214.069 79.9642 213.705 79.3832C213.487 78.8022 213.414 77.9306 213.56 76.8412Z" fill="url(#paint1_linear)"/>
<path d="M203.012 82.2883C204.03 82.2883 204.976 82.1431 205.849 81.8526C206.722 81.562 207.376 81.0536 207.958 80.4726C208.54 79.8916 208.904 79.1653 209.049 78.439H205.922C205.776 79.0927 205.485 79.5284 205.049 79.819C204.612 80.1095 204.03 80.2547 203.303 80.2547C202.43 80.2547 201.921 79.9642 201.63 79.4558C201.339 78.9474 201.339 78.0759 201.557 76.9138L201.703 76.1149C201.921 75.0255 202.212 74.2265 202.721 73.7181C203.158 73.2097 203.812 72.9919 204.54 72.9919C205.34 72.9919 205.849 73.1371 206.14 73.4276C206.431 73.7181 206.576 74.2265 206.504 74.8802H209.631C209.704 73.6455 209.34 72.6287 208.54 71.9024C207.74 71.1761 206.504 70.813 204.976 70.813C203.885 70.813 202.867 71.0309 201.994 71.4666C201.121 71.9024 200.321 72.5561 199.739 73.355C199.157 74.1539 198.793 75.0981 198.575 76.2601L198.502 76.8412C198.211 78.5843 198.43 79.9642 199.302 80.9084C200.103 81.7799 201.339 82.2883 203.012 82.2883Z" fill="url(#paint2_linear)"/>
<path d="M179.227 78.1485H181.191C182.791 78.1485 184.027 77.858 185.046 77.2043C186.064 76.5506 186.646 75.6791 186.864 74.5897C187.01 73.8634 186.864 73.2097 186.573 72.6287C186.282 72.0477 185.773 71.6119 185.046 71.2488C184.318 70.9582 183.518 70.7404 182.5 70.7404L177.336 70.6677L175.444 81.8525H178.572L179.227 78.1485ZM180.172 72.8466H182.282C182.864 72.8466 183.227 72.9918 183.518 73.355C183.809 73.6455 183.882 74.0813 183.809 74.5897C183.736 75.0981 183.518 75.4612 183.155 75.6791C182.791 75.9696 182.282 76.0422 181.7 76.0422H179.663L180.172 72.8466Z" fill="url(#paint3_linear)"/>
<path d="M188.101 81.9978L189.192 79.8916L193.483 79.9642L193.847 82.0704H197.193L194.356 70.8856H191.447L184.755 81.9978H188.101ZM192.32 74.0087L193.047 77.858H190.283L192.32 74.0087Z" fill="url(#paint4_linear)"/>
<path d="M357.873 62.8238C355.618 59.5556 352.127 57.0135 347.326 55.2705C346.889 59.3377 346.017 62.606 344.634 65.148L254.803 236.043C253.202 239.021 250.438 241.418 246.511 243.161C242.583 244.904 238.655 245.776 234.8 245.776L49.2444 244.105C33.1692 243.96 24.2224 239.82 22.4039 231.686C21.6038 228.563 22.113 226.021 23.8587 224.205C25.6044 222.462 28.2957 221.663 31.9327 221.663L206.65 223.261C219.088 223.406 228.035 221.445 233.49 217.523C238.946 213.601 245.274 204.74 252.475 191.014L334.669 34.1355C339.106 25.5653 339.179 18.0846 334.96 11.548C330.741 5.01138 323.613 1.67046 313.721 1.59783L160.752 0.0726287C159.006 0.0726287 155.515 0.508401 150.496 1.0168C147.15 0.363144 144.168 0 141.113 0C138.494 0 135.948 0.653659 133.548 1.96098C131.148 3.19566 129.111 4.57561 127.511 6.02818C125.911 7.48076 124.31 9.29648 122.637 11.548C120.964 13.7995 119.51 15.9057 118.346 17.794C117.182 19.6824 115.8 21.716 114.272 23.8222C112.745 25.9285 111.363 27.7442 110.054 29.0515C109.108 29.9957 107.726 31.1577 105.98 32.6829C104.234 34.2081 102.78 35.5154 101.689 36.6775C100.525 37.8396 99.7975 38.8564 99.361 39.8005C98.9246 40.8173 98.7791 42.3425 98.9973 44.3761C99.2156 46.4098 99.1428 47.8623 98.8519 48.8065C97.5426 53.2369 94.7785 58.7566 90.4142 65.5111C86.1227 72.2656 82.413 77.1317 79.358 80.1095C78.7034 80.6905 77.0304 81.9978 74.2663 83.9588C71.5023 85.9198 69.7566 87.7355 68.9564 89.1881C68.3018 89.7691 68.0108 91.3669 68.0108 94.0542C68.0108 96.7415 67.8654 98.5572 67.5744 99.6466C66.3379 103.569 63.792 108.798 59.8642 115.262C55.9363 121.726 52.2266 127.028 48.6625 131.167C48.1533 131.894 46.7713 133.201 44.5891 135.162C42.407 137.123 40.9522 138.721 40.3703 140.028C39.9339 140.972 39.7157 142.57 39.6429 144.894C39.5702 147.218 39.2792 148.962 38.6246 150.124C36.8061 154.481 33.8966 159.783 29.8232 165.957C25.8226 172.13 21.8948 177.432 18.0397 181.79C17.0213 182.952 15.712 184.332 14.039 185.857C12.3661 187.382 10.984 188.762 10.0384 189.924C9.02011 191.086 8.29272 192.321 7.78355 193.556C7.56534 194.209 7.56534 195.371 7.78355 196.969C8.07451 198.567 8.00177 199.802 7.71082 200.746C7.27439 202.344 6.69248 204.522 5.81962 207.137C4.94676 209.824 4.51033 211.35 4.43759 211.785C0.291513 218.685 -0.872299 226.093 1.0189 233.864C3.20104 242.943 8.58368 250.642 17.0941 256.888C25.6044 263.207 34.9877 266.33 45.3165 266.475L230.872 268.145C239.6 268.218 248.184 265.749 256.767 260.81C265.35 255.871 271.533 249.698 275.388 242.289L357.8 85.4114C362.019 76.9138 362.164 69.4331 357.873 62.8238ZM116.745 78.5117C119.728 61.0808 138.567 47.0634 158.861 47.2087C159.079 47.2087 159.297 47.2087 159.516 47.2087C162.207 47.2813 164.825 47.5718 167.299 48.1528C176.973 39.5827 190.357 34.2081 204.395 34.2808C204.686 34.2808 204.977 34.2808 205.704 34.3534C205.923 34.3534 206.141 34.3534 206.359 34.3534C206.65 34.3534 206.868 34.3534 207.377 34.426C221.707 35.4428 233.127 42.3425 238.873 52.3653C241.201 51.9295 243.601 51.7843 246.074 51.7843C265.059 51.9295 278.152 65.3659 275.315 81.7799C272.478 98.194 254.803 111.34 235.818 111.195C228.253 111.122 221.634 108.943 216.615 105.384C209.487 109.016 201.413 111.195 193.121 111.412C192.902 111.412 192.757 111.412 192.539 111.412C192.393 111.412 192.248 111.412 192.102 111.412C191.811 111.412 191.52 111.412 191.084 111.412C182.501 111.34 174.936 109.161 168.753 105.53C164.316 107.781 159.37 109.306 154.206 110.033C153.915 110.033 153.624 110.105 153.115 110.178C152.824 110.178 152.605 110.25 152.096 110.25C151.878 110.25 151.587 110.323 151.078 110.323C150.86 110.323 150.569 110.323 150.06 110.396C149.769 110.396 149.55 110.396 149.041 110.396C148.678 110.396 148.387 110.396 148.023 110.396C127.729 110.25 113.763 95.9425 116.745 78.5117Z" fill="url(#paint5_linear)"/>
</g>
<defs>
<linearGradient id="paint0_linear" x1="174.447" y1="81.6085" x2="169.498" y2="73.7049" gradientUnits="userSpaceOnUse">
<stop stop-color="#041C63"/>
<stop offset="1" stop-color="#0066CC"/>
</linearGradient>
<linearGradient id="paint1_linear" x1="220.887" y1="81.9717" x2="216.061" y2="73.8308" gradientUnits="userSpaceOnUse">
<stop stop-color="#041C63"/>
<stop offset="1" stop-color="#0066CC"/>
</linearGradient>
<linearGradient id="paint2_linear" x1="208.623" y1="81.899" x2="203.751" y2="73.8448" gradientUnits="userSpaceOnUse">
<stop stop-color="#041C63"/>
<stop offset="1" stop-color="#0066CC"/>
</linearGradient>
<linearGradient id="paint3_linear" x1="185.885" y1="81.4731" x2="181.237" y2="73.4384" gradientUnits="userSpaceOnUse">
<stop stop-color="#041C63"/>
<stop offset="1" stop-color="#0066CC"/>
</linearGradient>
<linearGradient id="paint4_linear" x1="196.07" y1="81.691" x2="191.615" y2="73.3454" gradientUnits="userSpaceOnUse">
<stop stop-color="#041C63"/>
<stop offset="1" stop-color="#0066CC"/>
</linearGradient>
<linearGradient id="paint5_linear" x1="328.435" y1="259.049" x2="233.509" y2="43.829" gradientUnits="userSpaceOnUse">
<stop stop-color="#041C63"/>
<stop offset="1" stop-color="#0066CC"/>
</linearGradient>
<clipPath id="clip0">
<rect width="361" height="268" fill="white"/>
</clipPath>
</defs>
</svg>
