<svg width="110" height="87" viewBox="0 0 110 87" fill="none" xmlns="http://www.w3.org/2000/svg">
<path fill-rule="evenodd" clip-rule="evenodd" d="M61.6182 9.81535H101.195C106.06 9.85075 109.988 13.7892 110 18.6432V66.2365C109.997 70.6923 106.669 74.4484 102.237 75V30.0776C102.226 23.1041 96.562 17.4537 89.5721 17.4419H51.7806L45.0609 9.47211C44.0795 8.30614 42.6305 7.63413 41.1043 7.63789H12C12.601 3.26713 16.3404 0.00789316 20.7625 0.000652805H52.673C53.0866 -0.0122189 53.4834 0.16584 53.7481 0.483343L61.6182 9.81535ZM49.623 20.9349H89.1495C94.035 20.9408 97.9941 24.9427 98 29.8811V78.0538C97.9941 82.9921 94.035 86.994 89.1495 87H8.8505C3.965 86.994 0.0059075 82.9921 0 78.0538V19.9577C0 15.0362 3.92795 11.0365 8.7968 11.0007H40.6865C41.0998 10.9876 41.4961 11.1679 41.7606 11.4892L49.623 20.9349Z" fill="url(#paint0_linear)"/>
<defs>
<linearGradient id="paint0_linear" x1="100.307" y1="84.0307" x2="68.3479" y2="15.5513" gradientUnits="userSpaceOnUse">
<stop stop-color="#041C63"/>
<stop offset="1" stop-color="#0066CC"/>
</linearGradient>
</defs>
</svg>
