<svg width="119" height="110" viewBox="0 0 119 110" fill="none" xmlns="http://www.w3.org/2000/svg">
<circle cx="55" cy="55" r="55" fill="url(#paint0_linear)"/>
<circle cx="95.1999" cy="33.5364" r="23.8" fill="white"/>
<path d="M90.6578 43.7722C89.4014 45.0087 87.3927 45.0002 86.0544 43.8529C77.4739 36.497 66.4507 32.4089 55 32.4089C43.5493 32.4089 32.5261 36.497 23.9456 43.8529C22.6073 45.0002 20.5986 45.0087 19.3422 43.7722C18.0552 42.5055 18.0506 40.4215 19.4143 39.2377C29.213 30.7317 41.859 26 55 26C68.1409 26 80.787 30.7317 90.5857 39.2377C91.9494 40.4215 91.9448 42.5055 90.6578 43.7722Z" fill="white"/>
<path d="M79.7562 55.5696C78.4604 56.9014 76.331 56.887 74.8974 55.7048C69.4221 51.1896 62.5859 48.6959 55.5 48.6959C48.4141 48.6959 41.5779 51.1896 36.1026 55.7048C34.669 56.887 32.5396 56.9014 31.2437 55.5696C29.9951 54.2863 29.9873 52.229 31.3414 51.0576C38.0781 45.2301 46.6273 41.9999 55.5 41.9999C64.3727 41.9999 72.9219 45.2301 79.6586 51.0576C81.0127 52.229 81.0049 54.2863 79.7562 55.5696Z" fill="white"/>
<path d="M67.7263 66.6186C66.4376 67.928 64.3394 67.8901 62.7886 66.9052C60.4708 65.4332 57.7751 64.6348 54.9986 64.6348C52.2221 64.6348 49.5264 65.4332 47.2086 66.9052C45.6579 67.89 43.5599 67.9276 42.2717 66.6179C41.0114 65.3365 40.9992 63.2562 42.4399 62.1816C46.0601 59.4815 50.455 58 55 58C59.5443 58 63.9386 59.481 67.5585 62.1805C69 63.2555 68.9876 65.337 67.7263 66.6186Z" fill="white"/>
<circle cx="55.0002" cy="79.9999" r="7" fill="white"/>
<path d="M91.9874 33.4376L88.7654 30.2121C87.5189 28.9642 85.4964 28.9647 84.2505 30.2131C83.0071 31.4589 83.0078 33.4765 84.2521 34.7215L91.9874 42.4613C93.9402 44.4153 97.1077 44.4154 99.0605 42.4613L116.747 24.7646C117.991 23.5193 117.991 21.5011 116.746 20.256C115.501 19.0102 113.481 19.0104 112.236 20.2564L99.0615 33.4386C97.1082 35.393 93.9401 35.3925 91.9874 33.4376Z" fill="url(#paint1_linear)"/>
<defs>
<linearGradient id="paint0_linear" x1="100.065" y1="106.268" x2="53.7732" y2="28.2839" gradientUnits="userSpaceOnUse">
<stop stop-color="#041C63"/>
<stop offset="1" stop-color="#0066CC"/>
</linearGradient>
<linearGradient id="paint1_linear" x1="84.8677" y1="14.2861" x2="127.166" y2="88.2636" gradientUnits="userSpaceOnUse">
<stop stop-color="#0066CC"/>
<stop offset="1" stop-color="#041C63"/>
</linearGradient>
</defs>
</svg>
