<svg width="61" height="110" viewBox="0 0 61 110" fill="none" xmlns="http://www.w3.org/2000/svg">
<path d="M54.3125 0H6.03472C2.70195 0 0 2.73615 0 6.11111V103.889C0 107.264 2.70195 110 6.03472 110H54.3125C57.6453 110 60.3472 107.264 60.3472 103.889V6.11111C60.3472 2.73615 57.6453 0 54.3125 0ZM30.1736 91.6667C26.8408 91.6667 24.1389 88.9305 24.1389 85.5556C24.1389 82.1806 26.8408 79.4445 30.1736 79.4445C33.5064 79.4445 36.2083 82.1806 36.2083 85.5556C36.2083 88.9305 33.5064 91.6667 30.1736 91.6667Z" fill="url(#paint0_linear)"/>
<path d="M29.3363 27.3779L20.6057 38.3478C19.727 39.4816 20.5207 41.1824 21.9663 41.1824L24.886 41.1824C25.8214 41.1824 26.6434 41.806 26.6434 42.7414L26.6434 60.1742C26.6434 61.1097 27.3237 61.875 28.2875 61.875L32.8796 61.875C33.7866 61.875 34.5803 61.1097 34.5803 60.1742L34.5803 42.7414C34.5803 41.806 35.3176 41.1824 36.2527 41.1824L39.1724 41.1824C40.5897 41.1824 41.3834 39.4816 40.5047 38.3761L32.0008 27.4346C31.3489 26.5275 30.0166 26.4991 29.3363 27.3779Z" fill="white"/>
<rect y="95.4861" width="60.3472" height="3.05556" fill="white"/>
<rect y="11.4583" width="60.3472" height="3.05556" fill="white"/>
<defs>
<linearGradient id="paint0_linear" x1="30.1736" y1="0" x2="30.1736" y2="110" gradientUnits="userSpaceOnUse">
<stop stop-color="#0066CC"/>
<stop offset="1" stop-color="#032975"/>
</linearGradient>
</defs>
</svg>
