<svg width="153" height="110" viewBox="0 0 153 110" fill="none" xmlns="http://www.w3.org/2000/svg">
<path d="M94.3909 110H119.008C137.618 108.703 152.308 92.4853 152.308 73.7658C152.308 56.2511 139.517 40.7751 122.68 37.9023C120.626 16.6807 102.576 0.0308902 80.6664 0C63.7365 0 49.1717 9.85398 42.4184 24.0635C40.1465 23.2294 37.719 22.797 35.1982 22.797C23.5277 22.797 14.098 32.1567 14.098 43.7405C14.098 46.2735 14.5337 48.683 15.3739 50.9379C6.19314 56.2819 0 66.1668 0 77.5035C0 93.9371 13.0087 109.104 29.3474 110H57.8856H64.5145H65.9461H86.3305H87.7621H94.3909Z" fill="url(#paint0_linear)"/>
<path d="M65.4973 68.1018L59.3951 61.9666C57.6081 60.17 54.7005 60.1706 52.9143 61.968C51.1425 63.751 51.1436 66.6302 52.9166 68.4119L65.4973 81.0539C67.4518 83.018 70.631 83.018 72.5855 81.0539L99.3893 54.1194C101.163 52.3373 101.163 49.457 99.3887 47.6752C97.6032 45.8816 94.6995 45.8818 92.9142 47.6758L72.5865 68.1027C70.6315 70.0672 67.4517 70.0668 65.4973 68.1018Z" fill="white"/>
<defs>
<linearGradient id="paint0_linear" x1="138.552" y1="106.268" x2="100.358" y2="17.179" gradientUnits="userSpaceOnUse">
<stop stop-color="#041C63"/>
<stop offset="1" stop-color="#0066CC"/>
</linearGradient>
</defs>
</svg>
