<svg width="110" height="110" viewBox="0 0 110 110" fill="none" xmlns="http://www.w3.org/2000/svg">
<g clip-path="url(#clip0)">
<path fill-rule="evenodd" clip-rule="evenodd" d="M85.0001 30C85.0001 46.5686 71.5687 60 55.0001 60C38.4315 60 25.0001 46.5686 25.0001 30C25.0001 13.4315 38.4315 0 55.0001 0C71.5687 0 85.0001 13.4315 85.0001 30ZM76.4356 68.0201C85.4394 70.4494 92.9687 73.8502 97.6953 76.2746C105.283 80.1711 110 87.8614 110 96.3404V100C110 105.515 105.513 110 100 110H62.5001H47.5001H10.0001C4.48735 110 0 105.515 0 100V96.3404C0 87.8614 4.7168 80.1711 12.3049 76.2746C17.0313 73.8502 24.5606 70.4494 33.5646 68.0201C34.8099 67.6709 36.1332 68.3644 36.5677 69.59L46.8148 98.1776L49.9172 82.6613L45.1271 68.2911C44.873 67.5293 45 66.6893 45.4737 66.0376C45.9425 65.3857 46.6943 65 47.5001 65H62.5001C63.3059 65 64.0578 65.3857 64.5265 66.0376C65.0002 66.6896 65.127 67.5293 64.8732 68.2911L60.083 82.6613L63.1854 98.1776L73.4326 69.59C73.8673 68.3644 75.1857 67.6686 76.4356 68.0201Z" fill="url(#paint0_linear)"/>
</g>
<defs>
<linearGradient id="paint0_linear" x1="100.066" y1="106.268" x2="53.7734" y2="28.284" gradientUnits="userSpaceOnUse">
<stop stop-color="#041C63"/>
<stop offset="1" stop-color="#0066CC"/>
</linearGradient>
<clipPath id="clip0">
<rect width="110" height="110" fill="white"/>
</clipPath>
</defs>
</svg>
