<svg width="91" height="110" viewBox="0 0 91 110" fill="none" xmlns="http://www.w3.org/2000/svg">
<path fill-rule="evenodd" clip-rule="evenodd" d="M37.7271 106.112L45.5 110L53.2729 106.112C64.6094 100.442 74.1435 91.725 80.807 80.9392C87.4704 70.1534 90.9999 57.7245 91 45.045V15.1724L45.5 0L0 15.1724V45.045C7.87214e-05 57.7245 3.52958 70.1534 10.193 80.9392C16.8565 91.725 26.3906 100.442 37.7271 106.112ZM45.5 102C45.1857 102 44.8756 101.928 44.5943 101.79L41.723 100.371C31.264 95.2494 22.467 87.3358 16.3298 77.5274C10.1926 67.7191 6.96061 56.4085 7.00041 44.8782V22.0102C7.00031 21.59 7.13412 21.1804 7.38289 20.8395C7.63166 20.4986 7.98275 20.2437 8.3864 20.1109L44.8597 8.10253C45.2754 7.96579 45.7247 7.96579 46.1404 8.10253L82.6137 20.1109C83.0173 20.2437 83.3684 20.4986 83.6172 20.8395C83.866 21.1804 83.9998 21.59 83.9997 22.0102V44.8782C84.0395 56.4087 80.8074 67.7196 74.6697 77.528C68.5321 87.3364 59.7346 95.2498 49.275 100.371L46.4058 101.79C46.1245 101.928 45.8144 102 45.5 102ZM45.5 98L42.7841 96.6283C33.2102 91.8373 25.1577 84.4342 19.5399 75.2585C13.9221 66.0828 10.9637 55.5016 11.0003 44.715V22.6085L45.5 11L79.9997 22.6085V44.715C80.0363 55.5019 77.0778 66.0833 71.4596 75.2591C65.8414 84.4348 57.7884 91.8378 48.214 96.6283L45.5 98Z" fill="url(#paint0_linear)"/>
<path d="M50.0885 36.0227L50.8189 34.3794C51.0389 33.8844 50.816 33.3048 50.321 33.0848C49.8259 32.8648 49.2464 33.0878 49.0264 33.5828L47.9776 35.9426H44.0216L42.9728 33.5827C42.7528 33.0878 42.1732 32.8648 41.6783 33.0848C41.1833 33.3047 40.9604 33.8844 41.1803 34.3793L41.9107 36.0226C39.9583 36.4057 38.4805 38.1294 38.4805 40.1924V41.827H53.5188V40.1924C53.5188 38.1295 52.041 36.4057 50.0885 36.0227Z" fill="white"/>
<path d="M62.019 50.327H56.1344V48.2878C59.095 47.8162 61.3651 45.2453 61.3651 42.154V40.8463C61.3651 40.3047 60.926 39.8655 60.3844 39.8655C59.8428 39.8655 59.4036 40.3047 59.4036 40.8463V42.154C59.4036 44.1598 58.0064 45.8444 56.1345 46.2885V45.4232C56.1345 44.5219 55.4012 43.7886 54.4999 43.7886H46.9807V55.2308C46.9807 55.7724 46.5415 56.2116 45.9999 56.2116C45.4583 56.2116 45.0192 55.7724 45.0192 55.2308V43.7886H37.5C36.5987 43.7886 35.8654 44.5218 35.8654 45.4232V46.2884C33.9934 45.8443 32.5962 44.1598 32.5962 42.1539V40.8462C32.5962 40.3046 32.1571 39.8655 31.6155 39.8655C31.0739 39.8655 30.6347 40.3046 30.6347 40.8462V42.1539C30.6347 45.2453 32.9048 47.816 35.8655 48.2877V50.3269H29.9808C29.4391 50.3269 29 50.7661 29 51.3077C29 51.8493 29.4391 52.2884 29.9808 52.2884H35.8653V54.3276C32.9047 54.7993 30.6346 57.3701 30.6346 60.4615V61.7691C30.6346 62.3107 31.0737 62.7499 31.6153 62.7499C32.157 62.7499 32.5961 62.3107 32.5961 61.7691V60.4615C32.5961 58.4556 33.9933 56.7711 35.8653 56.3269V56.8653C35.8653 62.4536 40.4117 67 45.9999 67C51.588 67 56.1344 62.4536 56.1344 56.8654V56.3271C58.0064 56.7712 59.4036 58.4557 59.4036 60.4616V61.7693C59.4036 62.3109 59.8427 62.75 60.3843 62.75C60.9259 62.75 61.3651 62.3109 61.3651 61.7693V60.4616C61.3651 57.3702 59.095 54.7995 56.1343 54.3278V52.2886H62.0189C62.5605 52.2886 62.9997 51.8494 62.9997 51.3078C62.9997 50.7662 62.5606 50.327 62.019 50.327Z" fill="white"/>
<defs>
<linearGradient id="paint0_linear" x1="10.2104" y1="15.3214" x2="45.5235" y2="109.991" gradientUnits="userSpaceOnUse">
<stop stop-color="#0066CC"/>
<stop offset="1" stop-color="#041C63"/>
</linearGradient>
</defs>
</svg>
