<svg width="110" height="110" viewBox="0 0 110 110" fill="none" xmlns="http://www.w3.org/2000/svg">
<path d="M87.9545 90.9697C87.7348 87.9427 86.2173 85.3583 83.6813 83.6904L69.6445 74.4668C68.0407 73.4131 66.2154 72.8913 64.397 72.8913C62.301 72.8913 60.2158 73.585 58.4918 74.9571C57.2921 75.9113 55.852 76.3815 54.4175 76.3815C52.7357 76.3815 51.0595 75.7344 49.7881 74.4636L35.5373 60.2116C33.182 57.8563 32.9692 54.115 35.0432 51.5085C37.605 48.2897 37.802 43.8075 35.5335 40.3558L26.3093 26.319C24.6426 23.7831 22.0582 22.2655 19.0307 22.0458C18.7827 22.0276 18.5372 22.0194 18.2936 22.0194C15.5556 22.0194 13.0625 23.141 11.2126 25.2244C0.301517 37.5114 0.859816 56.2424 12.4853 67.8673L42.1324 97.5144C48.1812 103.563 56.1528 106.615 64.1408 106.615C71.5045 106.615 78.882 104.021 84.7759 98.7871C87.0449 96.7729 88.1735 93.9959 87.9545 90.9697Z" fill="url(#paint0_linear)"/>
<path d="M93.1675 16.833C84.5645 8.22939 73.1254 3.49109 60.9586 3.49109C48.7918 3.49109 37.3533 8.22939 28.7504 16.833C28.1669 17.4158 27.6048 18.0176 27.0547 18.6313C28.7359 19.7674 30.2012 21.2408 31.3574 23.002L40.5816 37.0381C44.2877 42.6771 43.9616 50.0036 39.7703 55.2706C39.6085 55.4739 39.6243 55.7553 39.8081 55.9397L54.0601 70.1911C54.1583 70.29 54.2785 70.3403 54.417 70.3403C54.5901 70.3403 54.6952 70.2566 54.7286 70.2289C57.4678 68.0505 60.9013 66.8502 64.3978 66.8502C67.4442 66.8502 70.4056 67.7383 72.9617 69.4182L86.9985 78.6424C88.7596 79.7993 90.2331 81.264 91.3692 82.9458C91.9823 82.3957 92.584 81.8323 93.1669 81.2495C101.77 72.6471 106.508 61.208 106.508 49.0412C106.508 36.8745 101.77 25.4353 93.1675 16.833ZM67.5216 57.8683H52.4173C51.1547 57.8683 50.0249 57.0821 49.5849 55.8982C49.1456 54.7136 49.4899 53.3811 50.4472 52.5572C50.4472 52.5572 55.9131 47.8541 58.4611 45.0287C62.0947 41.0003 62.4875 38.9579 62.4875 38.2661C62.4875 37.3843 62.247 34.5053 59.1641 34.5053C57.2072 34.5053 55.8414 35.7478 55.8414 37.5266C55.8414 39.1945 54.4888 40.5472 52.8202 40.5472C51.1522 40.5472 49.7995 39.1945 49.7995 37.5266C49.7995 35.0655 50.7475 32.7813 52.4708 31.0945C54.2043 29.3982 56.581 28.4635 59.1641 28.4635C65.3117 28.4635 68.5287 33.395 68.5287 38.2661C68.5287 42.691 64.8447 47.3859 60.2757 51.8258H67.5216C69.1896 51.8258 70.5422 53.1791 70.5422 54.847C70.5422 56.515 69.1896 57.8683 67.5216 57.8683ZM91.0841 46.791H88.6671V54.8458C88.6671 56.515 87.3151 57.867 85.6459 57.867C83.9779 57.867 82.6259 56.515 82.6259 54.8458V46.791H75.9798C74.3118 46.791 72.9592 45.4384 72.9592 43.7698V31.4847C72.9592 29.8161 74.3118 28.4635 75.9798 28.4635C77.6484 28.4635 79.001 29.8161 79.001 31.4847V40.7492H82.6259V37.728C82.6259 36.0594 83.9779 34.7067 85.6459 34.7067C87.3151 34.7067 88.6671 36.0594 88.6671 37.728V40.7492H91.0841C92.7533 40.7492 94.1053 42.1018 94.1053 43.7698C94.1053 45.4384 92.7533 46.791 91.0841 46.791Z" fill="url(#paint1_linear)"/>
<defs>
<linearGradient id="paint0_linear" x1="80.3409" y1="103.745" x2="44.7401" y2="43.7706" gradientUnits="userSpaceOnUse">
<stop stop-color="#041C63"/>
<stop offset="1" stop-color="#0066CC"/>
</linearGradient>
<linearGradient id="paint1_linear" x1="99.3323" y1="80.2501" x2="65.8945" y2="23.9215" gradientUnits="userSpaceOnUse">
<stop stop-color="#041C63"/>
<stop offset="1" stop-color="#0066CC"/>
</linearGradient>
</defs>
</svg>
