<svg width="110" height="110" viewBox="0 0 110 110" fill="none" xmlns="http://www.w3.org/2000/svg">
<circle cx="55" cy="55" r="55" fill="url(#paint0_linear)"/>
<path d="M29.36 70.04V67.1L36.08 65.74V80H32.82V69.2L29.36 70.04ZM38.9758 73C38.9758 71.48 39.2158 70.18 39.6958 69.1C40.1891 68.0067 40.8691 67.1733 41.7358 66.6C42.6158 66.0267 43.6358 65.74 44.7958 65.74C45.9958 65.74 47.0291 66.0267 47.8958 66.6C48.7624 67.1733 49.4291 68.0067 49.8958 69.1C50.3758 70.18 50.6158 71.48 50.6158 73C50.6158 74.52 50.3758 75.82 49.8958 76.9C49.4291 77.98 48.7624 78.8133 47.8958 79.4C47.0291 79.9733 45.9958 80.26 44.7958 80.26C43.6358 80.26 42.6158 79.9733 41.7358 79.4C40.8691 78.8133 40.1891 77.98 39.6958 76.9C39.2158 75.82 38.9758 74.52 38.9758 73ZM42.2358 73C42.2358 74.32 42.4691 75.38 42.9358 76.18C43.4024 76.9667 44.0224 77.36 44.7958 77.36C45.5691 77.36 46.1891 76.9667 46.6558 76.18C47.1224 75.38 47.3558 74.32 47.3558 73C47.3558 71.68 47.1224 70.6267 46.6558 69.84C46.1891 69.04 45.5691 68.64 44.7958 68.64C44.0224 68.64 43.4024 69.04 42.9358 69.84C42.4691 70.6267 42.2358 71.68 42.2358 73ZM66.638 74.08V80H63.598V74.4C63.598 73.8533 63.5046 73.44 63.318 73.16C63.1446 72.8667 62.8513 72.72 62.438 72.72C62.038 72.72 61.7113 72.86 61.458 73.14C61.2046 73.42 61.078 73.84 61.078 74.4V80H58.038V74.4C58.038 73.8533 57.9446 73.44 57.758 73.16C57.5846 72.8667 57.2913 72.72 56.878 72.72C56.478 72.72 56.1513 72.86 55.898 73.14C55.6446 73.42 55.518 73.84 55.518 74.4V80H52.598V70.8H55.518V72.16C55.7846 71.6533 56.138 71.2667 56.578 71C57.018 70.72 57.5513 70.58 58.178 70.58C58.898 70.58 59.4713 70.7067 59.898 70.96C60.338 71.2133 60.6446 71.5933 60.818 72.1C61.1513 71.62 61.5646 71.2467 62.058 70.98C62.5513 70.7133 63.1113 70.58 63.738 70.58C64.8046 70.58 65.5513 70.8867 65.978 71.5C66.418 72.1133 66.638 72.9733 66.638 74.08ZM68.8242 67.36C68.8242 66.88 68.9909 66.4867 69.3242 66.18C69.6709 65.8733 70.0909 65.72 70.5842 65.72C71.0776 65.72 71.4909 65.8733 71.8242 66.18C72.1709 66.4867 72.3442 66.88 72.3442 67.36C72.3442 67.84 72.1709 68.2333 71.8242 68.54C71.4909 68.8333 71.0776 68.98 70.5842 68.98C70.0909 68.98 69.6709 68.8333 69.3242 68.54C68.9909 68.2333 68.8242 67.84 68.8242 67.36ZM69.1042 70.8H72.0442V80H69.1042V70.8ZM80.5116 74.4C80.5116 73.8533 80.4116 73.44 80.2116 73.16C80.0116 72.8667 79.6649 72.72 79.1716 72.72C78.6916 72.72 78.3049 72.8667 78.0116 73.16C77.7182 73.44 77.5716 73.8533 77.5716 74.4V80H74.5316V70.8H77.5716V72.18C77.8382 71.6733 78.1982 71.28 78.6516 71C79.1182 70.72 79.6916 70.58 80.3716 70.58C81.5182 70.58 82.3516 70.8867 82.8716 71.5C83.4049 72.1133 83.6716 72.9733 83.6716 74.08V80H80.5116V74.4Z" fill="white"/>
<path fill-rule="evenodd" clip-rule="evenodd" d="M57 24C57 22.3431 55.6569 21 54 21C52.3431 21 51 22.3431 51 24V50V53C51 54.6569 52.3431 56 54 56H57H83C84.6569 56 86 54.6569 86 53C86 51.3431 84.6569 50 83 50L60 50C58.3431 50 57 48.6569 57 47V24Z" fill="white"/>
<defs>
<linearGradient id="paint0_linear" x1="100.065" y1="106.268" x2="53.7732" y2="28.2839" gradientUnits="userSpaceOnUse">
<stop stop-color="#041C63"/>
<stop offset="1" stop-color="#0066CC"/>
</linearGradient>
</defs>
</svg>
